# xmcd
# 
# Track frame offsets:
#     150
#     85265
#     156293
#     196428
# 
# Disc length: 3306
# 
# Revision: 0
# Processed by: cddbd v1.5.2PL0 Copyright (c) Steve Scherf et al.
# Submitted via: fre:ac v1.0.17
# 
DISCID=2c0ce804
DTITLE=King Sunny Ade - Baba mo Tunde
DYEAR=2010
DGENRE=african
TTITLE0=Baba Feran Mi
TTITLE1=Oro Yi Bale
TTITLE2=Emi Won N'lle yi O
TTITLE3=Baba 'oun S'ouhn Gbogo
EXTD=
EXTT0=
EXTT1=
EXTT2=
EXTT3=
PLAYORDER=
